Coordinates
version=1
nRows=13
nColumns=36
inDegrees=yes

Units are S.I. units (second, meters, Newtons, ...)
If the header above contains a line with 'inDegrees', this indicates whether rotational values are in degrees (yes) or radians (no).

endheader
time	pelvis_tilt	pelvis_list	pelvis_rotation	pelvis_tx	pelvis_ty	pelvis_tz	hip_flexion_r	hip_adduction_r	hip_rotation_r	knee_angle_r	knee_angle_r_beta	ankle_angle_r	subtalar_angle_r	mtp_angle_r	hip_flexion_l	hip_adduction_l	hip_rotation_l	knee_angle_l	knee_angle_l_beta	ankle_angle_l	subtalar_angle_l	mtp_angle_l	lumbar_extension	lumbar_bending	lumbar_rotation	arm_flex_r	arm_add_r	arm_rot_r	elbow_flex_r	pro_sup_r	arm_flex_l	arm_add_l	arm_rot_l	elbow_flex_l	pro_sup_l
      7.65000000	     -9.99869123	      0.41158182	      2.65246457	     -0.09998771	      0.88429981	     -0.09727354	     14.58062556	     -4.13840059	     -6.14726442	      6.78341515	      0.11839293	      2.30390464	      0.48300311	     -7.49999987	     16.16806546	     -4.66646525	      2.01236990	      8.51957394	      0.14869462	      3.30994510	      4.10666527	     -7.49999987	     -5.56996467	      0.55266276	      0.55203329	     51.01401408	     14.00492761	     18.64213497	    108.16591260	     88.26453033	     68.21092440	     17.61901016	     64.77747936	    120.61517054	     79.24574182
      7.66666670	    -10.40769841	      0.44665795	      2.36703129	     -0.10200322	      0.88296989	     -0.09693470	     15.94252944	     -4.24594483	     -5.63671087	      8.18537891	      0.14286181	      2.75936387	     -0.22417660	     -7.49999987	     17.56117708	     -4.64987733	      2.17559184	     10.20697892	      0.17814539	      3.97250870	      3.40323087	     -7.49999987	     -6.12664754	      0.50011086	      0.03511545	     51.00469125	     14.42854220	     19.10601905	    108.00687039	     85.99378382	     68.40084243	     17.26328211	     65.10424250	    121.07072007	     77.58322467
      7.68333330	    -10.55051313	      0.41993787	      2.05669439	     -0.11033094	      0.88322660	     -0.09628096	     17.31491527	     -4.29142942	     -5.29808569	      9.82977591	      0.17156195	      3.39613044	     -0.48235017	     -7.49999987	     18.95723079	     -4.72284794	      2.31045576	     12.16555364	      0.21232897	      4.84970414	      2.71389764	     -7.49999987	     -7.47676535	      0.50795090	     -0.35262110	     51.31040898	     14.74056161	     19.28049034	    107.98768916	     86.13833817	     69.28594743	     16.80425418	     65.17174304	    120.89472046	     77.71569856
      7.70000000	    -11.46712774	      0.27592769	      1.94928436	     -0.11694431	      0.86968901	     -0.09535483	     20.04290780	     -4.25977501	     -4.77470298	     12.30194814	      0.21470950	      4.13613721	     -1.69576707	     -7.49999987	     21.81724149	     -4.84835263	      2.86795348	     14.99561846	      0.26172292	      5.78746355	      1.62819450	     -7.49999987	     -7.89841087	      0.61846949	     -0.67206928	     52.38521966	     14.76562828	     19.45084097	    109.56047027	     86.51347743	     70.80082316	     16.65195434	     65.06684098	    121.25153061	     78.15817664
      7.71666670	    -11.97050060	      0.26320803	      1.68653227	     -0.11575125	      0.87875040	     -0.09521801	     22.05670033	     -4.32880951	     -4.37835598	     14.37072191	      0.25081641	      4.31397790	     -2.31107449	     -7.49999987	     23.95242226	     -4.96114698	      2.96431139	     17.43536316	      0.30430449	      6.08585358	      0.95440329	     -7.49999987	     -8.88528228	      0.52248545	     -0.38025838	     53.22752196	     14.45180285	     19.65358078	    108.80639610	     86.93853561	     71.06807522	     16.24539398	     65.68302536	    121.06089071	     78.60074239
      7.73333330	    -12.27591829	      0.19698411	      1.19200140	     -0.12134374	      0.87345243	     -0.09527628	     24.13179528	     -4.28114886	     -4.05084325	     16.81808957	      0.29353104	      4.74312536	     -2.65258417	     -7.49999987	     26.03764489	     -5.20067359	      2.80662377	     20.18317206	      0.35226281	      6.95178228	      0.46875306	     -7.49999987	    -10.26729683	      0.49355524	     -0.70070747	     53.96501790	     14.59468376	     20.20671360	    108.35588187	     85.45621244	     72.38165347	     15.31212660	     66.18737219	    120.55282071	     77.70336878
      7.75000000	    -12.46349182	      0.13673948	      0.87489829	     -0.12500219	      0.87055468	     -0.09574281	     26.02192079	     -4.32979156	     -3.80618342	     19.36001747	      0.33789605	      5.26417004	     -3.09538686	     -7.49999987	     27.94949614	     -5.39353246	      2.70928462	     22.98641342	      0.40118860	      8.09160178	      0.03347205	     -7.49999987	    -11.69372188	      0.63759943	     -1.23656467	     54.22870295	     14.65412717	     21.27755405	    111.32123580	     84.13047408	     73.25009910	     14.08010247	     66.49534678	    120.63251337	     76.90733105
      7.76666670	    -13.07294226	     -0.03327910	      0.60684485	     -0.12777925	      0.86535314	     -0.09383004	     28.36707920	     -4.29406597	     -3.93863292	     21.72904796	      0.37924343	      5.96600176	     -3.23491706	     -7.49999987	     30.46208081	     -5.82300092	      2.38808878	     25.95534101	      0.45300616	      8.91883315	      0.04697661	     -7.49999987	    -12.81431382	      0.68485981	     -0.47800852	     56.24347807	     14.17993328	     21.24749652	    108.39278747	     88.25878995	     74.09502117	     14.59887002	     67.22019752	    120.43916340	     78.85594726
      7.78333330	    -13.27777883	     -0.19661281	      0.45568032	     -0.13020979	      0.86182806	     -0.09368978	     30.16203293	     -4.30671207	     -3.98783040	     24.17454134	      0.42192534	      6.98102786	     -3.14462591	     -7.49999987	     32.46820606	     -6.18948023	      2.31290563	     28.89349472	      0.50428662	      9.88393491	     -0.06409831	     -7.49999987	    -14.27166411	      0.64666439	     -0.24715488	     57.61147753	     13.75122840	     21.30561981	    107.16212605	     86.56834046	     74.93005632	     14.62532178	     68.43312757	    120.53331617	     77.84426593
      7.80000000	    -13.48254471	     -0.41160990	      0.52483488	     -0.13211149	      0.85793543	     -0.09343713	     31.82721024	     -4.38474893	     -4.41951641	     26.68389257	      0.46572178	      8.55283032	     -2.70951740	     -7.49999987	     34.38170499	     -6.56424318	      2.23482964	     31.71712233	      0.55356821	     11.26133385	      0.17632217	     -7.49999987	    -15.65645949	      0.81439556	     -0.31530243	     58.99481010	     13.72327488	     21.31775426	    104.63329744	     85.68690070	     75.83717065	     14.65179230	     69.15404502	    120.57716606	     77.10334535
      7.81666670	    -13.50343066	     -0.60881227	      0.61359751	     -0.13619282	      0.85211135	     -0.09288034	     33.47919822	     -4.45294924	     -4.62863255	     29.49232987	      0.51473826	     10.17332685	     -2.62804212	     -7.49999987	     36.19403790	     -6.90452925	      2.29773328	     34.62153026	      0.60425970	     12.51094673	      0.01781106	     -7.49999987	    -17.15851628	      0.88467088	     -0.16913761	     60.02982916	     13.41047233	     20.92303276	    103.84918962	     84.18412947	     76.06510547	     15.04016411	     70.01247344	    120.79099345	     75.99308544
      7.83333330	    -13.59037632	     -0.84700896	      0.37775774	     -0.14264959	      0.84526734	     -0.09286389	     35.53244022	     -4.34325377	     -4.48606531	     32.52044720	      0.56758888	     11.58580051	     -2.83740781	     -7.49999987	     38.05696246	     -7.31884630	      2.42620185	     37.38164539	      0.65243279	     13.84676887	     -0.44033915	     -7.49999987	    -18.61269196	      0.92524846	      0.00379767	     61.89191831	     13.34542161	     20.44233398	    102.98656283	     83.31868855	     76.54814695	     15.32432368	     69.70471711	    120.49242881	     75.35283856
      7.85000000	    -13.59958741	     -0.96139889	      0.41684598	     -0.14353124	      0.83894570	     -0.09277448	     37.33256553	     -4.57266839	     -4.71503679	     35.62100078	      0.62170375	     13.58546257	     -2.08785145	     -7.49999987	     39.81031834	     -7.53388773	      2.53831351	     40.05908367	      0.69916291	     15.21335694	     -0.27180614	     -7.49999987	    -20.02876099	      0.96009190	     -0.08537827	     62.34293654	     13.27080830	     21.21813127	    103.82680476	     82.24387635	     76.66304195	     15.23203173	     70.40212282	    121.23788821	     74.65305508
